# xmcd
#
# Track frame offsets: 
#        150
#        26927
#        52302
#        73599
#        93619
#        129380
#        145572
#        186803
#        235159
#        255726
#
# Disc length: 4017 seconds
#
# Revision: 0
# Processed by: cddbd v1.5.2PL0 Copyright (c) Steve Scherf et al.
# Submitted via: ExactAudioCopy v1.1
#
DISCID=920faf0a
DTITLE=Funkadelic - First Ya Gotta Shake the Gate
DYEAR=2014
DGENRE=Funk
TTITLE0=Catchin' Boogie Fever
TTITLE1=The Naz
TTITLE2=Talking to the Wall
TTITLE3=Where Would I Go
TTITLE4=Yesterdejavu
TTITLE5=Zip It
TTITLE6=The Wall
TTITLE7=Snot n' Booger
TTITLE8=Yellow light
TTITLE9=Dipety Dipety Doo Stop the Violence
EXTD=
EXTT0=
EXTT1=
EXTT2=
EXTT3=
EXTT4=
EXTT5=
EXTT6=
EXTT7=
EXTT8=
EXTT9=
PLAYORDER=
